<svg id="frames" xmlns="http://www.w3.org/2000/svg" viewBox="0 0 388.066 250"><path id="cat2" d="M382.705,104.327c4.43-19.381-18-37.654-18-37.654s6.645-31.148,0-33.779c-11.665-4.617-30.733,22.427-30.733,22.427l-4.707-.831c5.123-32.532-5.676-26.3-18.965-14.4s-25.334,36.27-33.917,44.3-18.827,5.26-38.208-3.887-42.085-6.081-50.668-1.374S171.73,81.07,171.73,81.07s-24.642-17.443-32.394-20.765-28.518-12.736-53.99-13.29-46.792,9.967-46.792,9.967c-10.521,9.137,1.385,16.889,12.737,14.4s38.208-6.092,56.758-1.939,46.791,25.2,46.238,31.287-12.09,16.8-25.2,19.658c-12.9,2.815-48.175,29.071-49.283,42.638s14.4,14.4,29.626,6.645,26.856-1.384,26.856-1.384c-14.12,13.843-15.5,30.732-3.6,33.224s22.149-9.69,37.1-23.257,29.9-19.935,53.437-17.166,60.911-.554,60.911-.554c9.968,9.691,42.915,30.179,55.1,35.993s25.749,2.492,27.41-3.6-16.612-20.765-14.951-24.641,19.461,3.225,26.411-7.1c6.4-9.509-26.134-24.46-31.4-25.844s-2.215-5.814-2.215-5.814C361.94,127.861,378.276,123.708,382.705,104.327Zm-18.39-23.248c5.561,0,10.069,5.279,10.069,11.79s-4.508,11.79-10.069,11.79-10.068-5.278-10.068-11.79S358.755,81.079,364.315,81.079Zm-4.728-35.033s1.28,6.61-5.019,15.47a48.782,48.782,0,0,0-9.056-3.089S353.772,46.738,359.587,46.046ZM312.38,66.673c-3.2,2.628-10.936,3.184-10.936,3.184s5.587-16.156,19.084-21.763C320.251,56.677,318.656,61.516,312.38,66.673Zm19.566,35.506c-6.015,0-10.89-5.608-10.89-12.526s4.875-12.526,10.89-12.526,10.89,5.608,10.89,12.526S337.96,102.179,331.946,102.179Z"/></svg>