<svg id="frames" xmlns="http://www.w3.org/2000/svg" viewBox="0 0 388.066 250"><path id="cat3" d="M364.709,104.327s13.013-29.833,4.983-32.117c-15.7-4.465-32.344,14.823-32.344,14.823l-4.018-.887s3.415-14.766,2.861-21.688-18.55.83-28.795,9.413-29.9,36.271-41.807,41.531-25.472-13.013-43.746-26.026-44.576-2.492-44.576-2.492c-4.43-1.384-11.075-13.566-24.088-26.3S126.6,37.878,96.7,32.894s-44.166,4.789-42.5,11.157,4.3,6.148,38.352,9.332c39.125,3.658,50.114,23.534,59.528,34.886s-3.046,22.7-13.844,38.208-6.922,26.3-4.984,39.316,13.567,16.335,15.5,35.162,6.645,25.2,18.551,21.043c11.636-4.06,6.876-43.539,6.655-45.322.112.294,1.322.967,13-4.515,13.567-6.368,26.857,3.322,44.3,7.752s30.179-.277,34.609,9.691c8.9,20.018,23.257,45.13,40.7,53.99s20.765-8.86,14.674-16.059-7.2-19.1-7.2-19.1c34.885,4.984,43.191-1.661,44.3-10.244s-17.72-13.29-26.857-18-2.768-12.182-2.768-12.182c29.071-3.323,45.868-11.352,48.452-32.394C379.311,118.162,364.709,104.327,364.709,104.327Zm-62.3-8.029s10.429-15.874,22.242-19.012c0,0-.554,11.352-5.907,15.69C312.448,98.081,302.413,96.3,302.413,96.3Zm26.026,37.008c-5.811,0-10.521-5.33-10.521-11.905s4.71-11.906,10.521-11.906,10.521,5.331,10.521,11.906S334.249,133.306,328.439,133.306Zm34.516-49.744c.018,3.471-4.4,12.116-6.959,13.62a16.906,16.906,0,0,0-7.883-4.3C349.865,90.689,356.68,83.537,362.955,83.562ZM360.094,139.2c-5.084,0-9.206-4.913-9.206-10.974s4.122-10.973,9.206-10.973,9.207,4.913,9.207,10.973S365.179,139.2,360.094,139.2Z"/></svg>