<svg id="frames" xmlns="http://www.w3.org/2000/svg" viewBox="0 0 388.066 250"><path id="cat1" d="M327.054,117.063l1.662-4.153c35.162-4.43,46.517-27.359,44.671-42.219-1.938-15.6-17.815-29.352-23.629-31.705,0,0,4.43-34.886-5.261-34.886-11.365,0-26.856,26.579-26.856,26.579h-4.153s-.277-24.364-7.2-24.087c-14.939.6-31.01,42.084-31.01,42.084-3.6,3.876-4.43,13.29-14.951,24.088s-36.244,9.357-56.733,9.08S162.87,98.513,162.87,98.513c-6.368,0-24.088-3.323-39.316-4.43s-47.345.831-55.928,1.938S7.268,108.48,10.314,119.832s24.364,4.153,50.113,0,65.342-4.43,74.756-1.384-1.385,20.488-18.551,25.2S84.515,166.069,77.04,174.1s-14.4,23.257,1.938,24.088,32.117-16.613,39.869-19.381,2.215,8.306-.554,15.227-6.368,28.518,4.984,29.349,28.8-25.472,32.117-30.179,18-11.352,21.319-14.4,12.183-12.46,12.183-12.46,32.394-.83,48.729-3.876,31.84-15.5,40.146-16.612,19.935,7.2,22.981,9.414,25.749,15.781,37.1,18.55,12.46-12.182,12.46-12.182,9.967,4.983,15.5-6.368S327.054,117.063,327.054,117.063ZM298.629,44.892c-2.492,3.415-12,4.984-12,4.984s6.46-19.2,16.8-23.35C305.182,35.94,301.69,40.7,298.629,44.892Zm53.251,7.5c5.5,0,9.967,5.578,9.967,12.459s-4.462,12.459-9.967,12.459-9.967-5.578-9.967-12.459S346.375,52.4,351.88,52.4ZM340.866,20.172c.655,6.977-2.275,14.593-2.275,14.593a30.833,30.833,0,0,0-8.971-1.753C334.234,23.829,337.483,21.081,340.866,20.172ZM318.748,79.04c-5.5,0-9.967-5.579-9.967-12.46s4.462-12.459,9.967-12.459,9.968,5.578,9.968,12.459S324.253,79.04,318.748,79.04Z"/></svg>