<svg id="frames" xmlns="http://www.w3.org/2000/svg" viewBox="0 0 388.066 250"><path id="sleep" d="M216.575,15.909V5.1h40.16V16.142L231.817,44.98h25.8v10.9H214.805V45.539l25.172-29.63Zm50.538,55.8V64.484h30.575v7.383L278.717,91.148h19.645v7.289h-32.6V91.522L284.93,71.711Zm96.61,81.888s11.752-20.337,9.131-34.046c-1.842-9.637-31.391,18.589-31.391,18.589l-6.092-1.557s8.033-29.068.383-30.981-29.451,15.3-41.308,30.981c0,0-20.654,5.119-29.068,31.437s-45.515-29.142-58.52-37.939-28.685-26.773-70.376-13.769S81.793,151.3,81.788,169.861c0,15.3,2.677,22.184-1.53,28.686,0,0-47.427-4.972-43.6-43.6s32.129-32.511,36.718-32.893,14.152-4.972,12.24-16.447S66.106,88.775,52.337,94.13s-43.6,19.124-43.6,61.579,25.626,61.937,69.229,74.966S182.38,243.7,201.5,243.7s125.453,2.27,132.72-5.762c0,0,41.251-12.68,41.251-44.347C375.475,168.352,371.88,162.579,363.723,153.6ZM324.9,133.262s-5.915-2.07-14.787,0c0,0,10.942-11.534,14.787-11.534S324.9,133.262,324.9,133.262Zm31.708,14.586c-1.774-2.366-6.323-4.549-6.323-4.549s8.775-7.195,9.366-5.124S356.609,147.848,356.609,147.848Z"/></svg>