<svg id="frames" xmlns="http://www.w3.org/2000/svg" viewBox="0 0 388.066 250"><path id="cat4" d="M328.854,79.963s9.967-30.872.692-34.194-29.487,19.1-29.487,19.1l-4.983-1.107c2.907-25.057.277-27.411-14.536-16.474s-26.58,30.871-29.625,34.055-5.953,14.951-33.5,1.246-44.714-5.814-60.635-1.938-50.113,22.565-68.941,29.763-37.931,4.154-42.084,3.461-23.4-15.228-30.594-7.337.692,16.336,8.583,22.7,27.272,9,43.745,8.444,65.9-18.273,65.9-18.273c2.815,3.922.877,2.722,1.984,15.274s15.874,24,19.75,28.61.923,9.783,1.661,21.6,12,11.444,21.781,11.444,13.29,5.537,15.136,9.783,5.168,10.152,15.5,10.152,12.182-4.061,14.951-8.122,12-8.122,16.243-7.752,7.014,21.042,11.259,28.24,19.75,11.26,22.519,9.045,6.091-3.323,1.292-19.012-1.292-39.685.185-47.253,3.137-18.458,30.271-23.626,40.608-18.458,40.608-36.178S328.854,79.963,328.854,79.963Zm-49.468-5.584A15.8,15.8,0,0,1,267.481,78.3s7.752-15.827,18.92-18.412C286.4,59.889,287.231,67.411,279.386,74.379Zm15.644,37.847c-5.709,0-10.337-5.131-10.337-11.46s4.628-11.46,10.337-11.46,10.336,5.131,10.336,11.46S300.738,112.226,295.03,112.226Zm16.7-41.908s7.16-9.46,11.52-10.429c.277,5.446-.807,10.106-4.453,13.8A26.262,26.262,0,0,0,311.727,70.318Zm16.9,47.077c-5.1,0-9.229-4.787-9.229-10.693s4.132-10.693,9.229-10.693,9.229,4.788,9.229,10.693S333.72,117.4,328.623,117.4Z"/></svg>