<svg id="frames" xmlns="http://www.w3.org/2000/svg" viewBox="0 0 388.066 250"><path id="cat0" d="M321.24,52.276c-.01-13.464,1.661-33.779-8.15-35.163s-25.074,26.579-25.074,26.579l-4.43.554s3.6-26.026-8.86-23.257S247.039,62.8,247.039,62.8s-5.538,4.429-9.414,18.3S219.075,95.19,194.71,92.145s-47.345,17.443-47.345,17.443c-22.15-.831-40.977,2.215-55.374,7.752s-32.117,23.811-55.375,22.15S2.284,141.982,3.669,150.011s9.413,9.414,22.426,10.8,44.853-7.476,65.342-19.381a78.147,78.147,0,0,1,41.53-10.143c-2.768,24.19,6.646,21.218,5.538,45.029s8.583,46.791,24.365,59.527,21.6,6.091,22.149-1.661-15.781-27.687-16.335-35.44,9.137-1.384,10.244.554,16.889,17.166,29.9,20.489,7.2-15.782,2.492-27.134,3.6-22.15,19.1-24.641,22.7,5.814,19.658,16.058-4.153,24.919,8.86,24.088,34.332-32.117,35.993-50.668,4.153-28.794,16.059-32.67,33.5-15.782,33.5-37.932S321.24,52.276,321.24,52.276Zm-46.722,1.107c-1.592,6.091-16.4,11.144-16.4,11.144s1.873-21.665,17.862-26.28A43.462,43.462,0,0,1,274.518,53.383ZM290.7,92.768c-5.433,0-9.85-5.237-9.85-11.673s4.417-11.671,9.85-11.671,9.85,5.235,9.85,11.671S296.132,92.768,290.7,92.768Zm21.311-43.907c-4.155-2.006-6.5-3.074-10.883-3.517,0,0,2.808-11.619,11.345-14.111A36.68,36.68,0,0,1,312.011,48.861Zm11.6,40.931c-5.433,0-9.85-5.223-9.85-11.644S318.18,66.5,323.613,66.5s9.847,5.225,9.847,11.646S329.042,89.792,323.613,89.792Z"/></svg>